<?xml version="1.0" encoding="UTF-8" standalone="no"?>
<!-- Created with Inkscape (http://www.inkscape.org/) -->

<svg
   xmlns:ns0="http://www.iki.fi/pav/software/textext/"
   xmlns:dc="http://purl.org/dc/elements/1.1/"
   xmlns:cc="http://creativecommons.org/ns#"
   xmlns:rdf="http://www.w3.org/1999/02/22-rdf-syntax-ns#"
   xmlns:svg="http://www.w3.org/2000/svg"
   xmlns="http://www.w3.org/2000/svg"
   xmlns:xlink="http://www.w3.org/1999/xlink"
   xmlns:sodipodi="http://sodipodi.sourceforge.net/DTD/sodipodi-0.dtd"
   xmlns:inkscape="http://www.inkscape.org/namespaces/inkscape"
   width="360"
   height="270"
   id="svg2"
   version="1.1"
   inkscape:version="0.48.3.1 r9886"
   sodipodi:docname="n-pendulum-with-cart.svg">
  <sodipodi:namedview
     id="base"
     pagecolor="#ffffff"
     bordercolor="#666666"
     borderopacity="1.0"
     inkscape:pageopacity="0.0"
     inkscape:pageshadow="2"
     inkscape:zoom="1.5694444"
     inkscape:cx="180"
     inkscape:cy="180"
     inkscape:document-units="px"
     inkscape:current-layer="layer1"
     showgrid="false"
     units="in"
     inkscape:window-width="1366"
     inkscape:window-height="744"
     inkscape:window-x="0"
     inkscape:window-y="24"
     inkscape:window-maximized="1" />
  <defs
     id="defs4">
    <marker
       style="overflow:visible"
       id="Arrow1Send"
       refX="0"
       refY="0"
       orient="auto"
       inkscape:stockid="Arrow1Send">
      <path
         transform="matrix(-0.2,0,0,-0.2,-1.2,0)"
         style="fill-rule:evenodd;stroke:#000000;stroke-width:1pt"
         d="M 0,0 5,-5 -12.5,0 5,5 0,0 z"
         id="path4056"
         inkscape:connector-curvature="0" />
    </marker>
    <marker
       style="overflow:visible"
       id="Arrow1Sstart"
       refX="0"
       refY="0"
       orient="auto"
       inkscape:stockid="Arrow1Sstart">
      <path
         transform="matrix(0.2,0,0,0.2,1.2,0)"
         style="fill-rule:evenodd;stroke:#000000;stroke-width:1pt"
         d="M 0,0 5,-5 -12.5,0 5,5 0,0 z"
         id="path4053"
         inkscape:connector-curvature="0" />
    </marker>
    <marker
       inkscape:stockid="Arrow1Mend"
       orient="auto"
       refY="0"
       refX="0"
       id="Arrow1Mend"
       style="overflow:visible">
      <path
         id="path4050"
         d="M 0,0 5,-5 -12.5,0 5,5 0,0 z"
         style="fill-rule:evenodd;stroke:#000000;stroke-width:1pt"
         transform="matrix(-0.4,0,0,-0.4,-4,0)"
         inkscape:connector-curvature="0" />
    </marker>
    <marker
       inkscape:stockid="Arrow1Mstart"
       orient="auto"
       refY="0"
       refX="0"
       id="Arrow1Mstart"
       style="overflow:visible">
      <path
         id="path4047"
         d="M 0,0 5,-5 -12.5,0 5,5 0,0 z"
         style="fill-rule:evenodd;stroke:#000000;stroke-width:1pt"
         transform="matrix(0.4,0,0,0.4,4,0)"
         inkscape:connector-curvature="0" />
    </marker>
    <marker
       style="overflow:visible"
       id="Arrow1Sstart-7"
       refX="0"
       refY="0"
       orient="auto"
       inkscape:stockid="Arrow1Sstart">
      <path
         transform="matrix(0.2,0,0,0.2,1.2,0)"
         style="fill-rule:evenodd;stroke:#000000;stroke-width:1pt"
         d="M 0,0 5,-5 -12.5,0 5,5 0,0 z"
         id="path4053-9"
         inkscape:connector-curvature="0" />
    </marker>
    <marker
       style="overflow:visible"
       id="Arrow1Sstart-8"
       refX="0"
       refY="0"
       orient="auto"
       inkscape:stockid="Arrow1Sstart">
      <path
         transform="matrix(0.2,0,0,0.2,1.2,0)"
         style="fill-rule:evenodd;stroke:#000000;stroke-width:1pt"
         d="M 0,0 5,-5 -12.5,0 5,5 0,0 z"
         id="path4053-98"
         inkscape:connector-curvature="0" />
    </marker>
  </defs>
  <metadata
     id="metadata7">
    <rdf:RDF>
      <cc:Work
         rdf:about="">
        <dc:format>image/svg+xml</dc:format>
        <dc:type
           rdf:resource="http://purl.org/dc/dcmitype/StillImage" />
        <dc:title />
      </cc:Work>
    </rdf:RDF>
  </metadata>
  <g
     inkscape:label="Layer 1"
     inkscape:groupmode="layer"
     id="layer1"
     transform="translate(0,-782.35975)">
    <rect
       style="fill:#ff0000;fill-opacity:1;stroke:#000000;stroke-width:2;stroke-linecap:round;stroke-linejoin:round;stroke-miterlimit:4;stroke-opacity:1;stroke-dasharray:none;stroke-dashoffset:0"
       id="rect2985"
       width="95.575218"
       height="20.389381"
       x="119.11504"
       y="991.19159" />
    <path
       style="fill:none;stroke:#000000;stroke-width:1px;stroke-linecap:butt;stroke-linejoin:miter;stroke-opacity:1;marker-start:url(#Arrow1Mstart);marker-end:url(#Arrow1Mend)"
       d="m 89.840708,1002.0235 -50.336283,0 0,-50.33631"
       id="path2989"
       inkscape:connector-curvature="0" />
    <path
       style="fill:none;stroke:#0000ff;stroke-width:2;stroke-linecap:butt;stroke-linejoin:miter;stroke-miterlimit:4;stroke-opacity:1;stroke-dasharray:none"
       d="m 167.57522,1001.3863 72.53954,-41.88072"
       id="path2993"
       inkscape:connector-curvature="0" />
    <path
       style="fill:none;stroke:#0000ff;stroke-width:2;stroke-linecap:butt;stroke-linejoin:miter;stroke-miterlimit:4;stroke-opacity:1;stroke-dasharray:2, 2;stroke-dashoffset:0"
       d="m 240.3275,959.24943 54.56622,-63.54926"
       id="path2993-2"
       inkscape:connector-curvature="0" />
    <path
       style="fill:none;stroke:#0000ff;stroke-width:2;stroke-linecap:butt;stroke-linejoin:miter;stroke-miterlimit:4;stroke-opacity:1;stroke-dasharray:none"
       d="m 295.06598,895.13259 17.72644,-81.86424"
       id="path2993-6"
       inkscape:connector-curvature="0" />
    <path
       sodipodi:type="arc"
       style="fill:#0000ff;fill-opacity:1;stroke:none"
       id="path3020"
       sodipodi:cx="75.504425"
       sodipodi:cy="151.00885"
       sodipodi:rx="14.336283"
       sodipodi:ry="14.654867"
       d="m 89.840708,151.00885 c 0,8.09366 -6.418573,14.65487 -14.336283,14.65487 -7.91771,0 -14.336283,-6.56121 -14.336283,-14.65487 0,-8.09366 6.418573,-14.65487 14.336283,-14.65487 7.91771,0 14.336283,6.56121 14.336283,14.65487 z"
       transform="matrix(0.52314816,0,0,0.51177538,200.53296,882.26204)" />
    <path
       sodipodi:nodetypes="cc"
       style="fill:none;stroke:#000000;stroke-width:1;stroke-linecap:butt;stroke-linejoin:miter;stroke-miterlimit:4;stroke-opacity:1;stroke-dasharray:3, 3;stroke-dashoffset:0"
       d="m 176.98476,1002.0235 56.70796,0"
       id="path3022"
       inkscape:connector-curvature="0" />
    <path
       style="fill:none;stroke:#000000;stroke-width:1;stroke-linecap:butt;stroke-linejoin:miter;stroke-miterlimit:4;stroke-opacity:1;stroke-dasharray:3, 3;stroke-dashoffset:0;marker-start:none"
       d="m 250.58043,960.83281 41.36951,0"
       id="path3024"
       inkscape:connector-curvature="0"
       sodipodi:nodetypes="cc" />
    <path
       sodipodi:nodetypes="cc"
       style="fill:none;stroke:#000000;stroke-width:1;stroke-linecap:butt;stroke-linejoin:miter;stroke-miterlimit:4;stroke-opacity:1;stroke-dasharray:3, 3;stroke-dashoffset:0"
       d="m 304.86894,896.40815 19.07525,0"
       id="path3026"
       inkscape:connector-curvature="0" />
    <path
       sodipodi:type="arc"
       style="fill:#0000ff;fill-opacity:1;stroke:none"
       id="path3020-0"
       sodipodi:cx="75.504425"
       sodipodi:cy="151.00885"
       sodipodi:rx="14.336283"
       sodipodi:ry="14.654867"
       d="m 89.840708,151.00885 c 0,8.09366 -6.418573,14.65487 -14.336283,14.65487 -7.91771,0 -14.336283,-6.56121 -14.336283,-14.65487 0,-8.09366 6.418573,-14.65487 14.336283,-14.65487 7.91771,0 14.336283,6.56121 14.336283,14.65487 z"
       transform="matrix(0.52314816,0,0,0.51177538,128.46306,924.42824)" />
    <path
       sodipodi:type="arc"
       style="fill:#0000ff;fill-opacity:1;stroke:none"
       id="path3020-7"
       sodipodi:cx="75.504425"
       sodipodi:cy="151.00885"
       sodipodi:rx="14.336283"
       sodipodi:ry="14.654867"
       d="m 89.840708,151.00885 c 0,8.09366 -6.418573,14.65487 -14.336283,14.65487 -7.91771,0 -14.336283,-6.56121 -14.336283,-14.65487 0,-8.09366 6.418573,-14.65487 14.336283,-14.65487 7.91771,0 14.336283,6.56121 14.336283,14.65487 z"
       transform="matrix(0.52314816,0,0,0.51177538,254.84119,819.0005)" />
    <path
       sodipodi:type="arc"
       style="fill:#0000ff;fill-opacity:1;stroke:none"
       id="path3020-06"
       sodipodi:cx="75.504425"
       sodipodi:cy="151.00885"
       sodipodi:rx="14.336283"
       sodipodi:ry="14.654867"
       d="m 89.840708,151.00885 c 0,8.09366 -6.418573,14.65487 -14.336283,14.65487 -7.91771,0 -14.336283,-6.56121 -14.336283,-14.65487 0,-8.09366 6.418573,-14.65487 14.336283,-14.65487 7.91771,0 14.336283,6.56121 14.336283,14.65487 z"
       transform="matrix(0.52314816,0,0,0.51177538,273.53884,736.77587)" />
    <g
       transform="translate(-193.76468,875.86895)"
       ns0:text="$O$"
       ns0:preamble=""
       id="g4707">
      <defs
         id="defs4709">
        <g
           id="g4711">
          <symbol
             style="overflow:visible"
             overflow="visible"
             id="textext-d3625bf8-0">
            <path
               inkscape:connector-curvature="0"
               style="stroke:none"
               d=""
               id="path4714" />
          </symbol>
          <symbol
             style="overflow:visible"
             overflow="visible"
             id="textext-d3625bf8-1">
            <path
               inkscape:connector-curvature="0"
               style="stroke:none"
               d="m 7.375,-4.34375 c 0,-1.609375 -1.0625,-2.6875 -2.546875,-2.6875 -2.140625,0 -4.34375,2.265625 -4.34375,4.59375 0,1.65625 1.125,2.65625 2.5625,2.65625 2.109375,0 4.328125,-2.1875 4.328125,-4.5625 z m -4.28125,4.296875 c -0.984375,0 -1.671875,-0.796875 -1.671875,-2.109375 0,-0.453125 0.140625,-1.90625 0.90625,-3.0625 0.6875,-1.046875 1.65625,-1.5625 2.453125,-1.5625 0.8125,0 1.703125,0.5625 1.703125,2.046875 0,0.71875 -0.265625,2.265625 -1.25,3.5 C 4.75,-0.625 3.9375,-0.046875 3.09375,-0.046875 z"
               id="path4717" />
          </symbol>
        </g>
      </defs>
      <g
         id="textext-d3625bf8-2">
        <g
           style="fill:#000000;fill-opacity:1"
           id="g4720">
          <use
             height="360"
             width="360"
             xlink:href="#textext-d3625bf8-1"
             x="223.43201"
             y="134.765"
             id="use4722" />
        </g>
      </g>
    </g>
    <g
       id="g4784"
       ns0:preamble=""
       ns0:text="$q_0$"
       transform="translate(-124.10822,898.97412)">
      <defs
         id="defs4786">
        <g
           id="g4788">
          <symbol
             style="overflow:visible"
             id="textext-7b8382d5-0"
             overflow="visible">
            <path
               inkscape:connector-curvature="0"
               id="path4791"
               d=""
               style="stroke:none" />
          </symbol>
          <symbol
             style="overflow:visible"
             id="textext-7b8382d5-1"
             overflow="visible">
            <path
               inkscape:connector-curvature="0"
               id="path4794"
               d="m 4.5,-4.296875 c 0,-0.046875 -0.03125,-0.09375 -0.09375,-0.09375 -0.109375,0 -0.515625,0.390625 -0.671875,0.6875 C 3.515625,-4.25 3.125,-4.40625 2.796875,-4.40625 c -1.171875,0 -2.390625,1.46875 -2.390625,2.921875 0,0.96875 0.578125,1.59375 1.3125,1.59375 0.421875,0 0.8125,-0.234375 1.171875,-0.59375 -0.09375,0.34375 -0.421875,1.6875 -0.453125,1.78125 -0.078125,0.28125 -0.15625,0.3125 -0.71875,0.328125 -0.125,0 -0.21875,0 -0.21875,0.203125 0,0 0,0.109375 0.125,0.109375 0.3125,0 0.671875,-0.03125 1,-0.03125 0.328125,0 0.6875,0.03125 1.03125,0.03125 0.046875,0 0.171875,0 0.171875,-0.203125 C 3.828125,1.625 3.734375,1.625 3.5625,1.625 3.09375,1.625 3.09375,1.5625 3.09375,1.46875 3.09375,1.390625 3.109375,1.328125 3.125,1.25 z m -2.75,4.1875 c -0.609375,0 -0.640625,-0.765625 -0.640625,-0.9375 0,-0.484375 0.28125,-1.5625 0.453125,-1.984375 0.3125,-0.734375 0.828125,-1.15625 1.234375,-1.15625 0.65625,0 0.796875,0.8125 0.796875,0.875 0,0.0625 -0.546875,2.25 -0.578125,2.28125 C 2.859375,-0.75 2.296875,-0.109375 1.75,-0.109375 z"
               style="stroke:none" />
          </symbol>
          <symbol
             style="overflow:visible"
             id="textext-7b8382d5-2"
             overflow="visible">
            <path
               inkscape:connector-curvature="0"
               id="path4797"
               d=""
               style="stroke:none" />
          </symbol>
          <symbol
             style="overflow:visible"
             id="textext-7b8382d5-3"
             overflow="visible">
            <path
               inkscape:connector-curvature="0"
               id="path4800"
               d="M 3.59375,-2.21875 C 3.59375,-2.984375 3.5,-3.546875 3.1875,-4.03125 2.96875,-4.34375 2.53125,-4.625 1.984375,-4.625 c -1.625,0 -1.625,1.90625 -1.625,2.40625 0,0.5 0,2.359375 1.625,2.359375 1.609375,0 1.609375,-1.859375 1.609375,-2.359375 z M 1.984375,-0.0625 c -0.328125,0 -0.75,-0.1875 -0.890625,-0.75 C 1,-1.21875 1,-1.796875 1,-2.3125 1,-2.828125 1,-3.359375 1.09375,-3.734375 1.25,-4.28125 1.6875,-4.4375 1.984375,-4.4375 c 0.375,0 0.734375,0.234375 0.859375,0.640625 0.109375,0.375 0.125,0.875 0.125,1.484375 0,0.515625 0,1.03125 -0.09375,1.46875 -0.140625,0.640625 -0.609375,0.78125 -0.890625,0.78125 z"
               style="stroke:none" />
          </symbol>
        </g>
      </defs>
      <g
         id="textext-7b8382d5-4">
        <g
           id="g4803"
           style="fill:#000000;fill-opacity:1">
          <use
             height="360"
             width="360"
             id="use4805"
             y="134.765"
             x="223.43201"
             xlink:href="#textext-7b8382d5-1" />
        </g>
        <g
           id="g4807"
           style="fill:#000000;fill-opacity:1">
          <use
             height="360"
             width="360"
             id="use4809"
             y="136.259"
             x="227.88"
             xlink:href="#textext-7b8382d5-3" />
        </g>
      </g>
    </g>
    <g
       transform="translate(5.8089688,851.4691)"
       ns0:text="$q_1$"
       ns0:preamble=""
       id="g4903">
      <defs
         id="defs4905">
        <g
           id="g4907">
          <symbol
             style="overflow:visible"
             overflow="visible"
             id="textext-d862ba06-0">
            <path
               inkscape:connector-curvature="0"
               style="stroke:none"
               d=""
               id="path4910" />
          </symbol>
          <symbol
             style="overflow:visible"
             overflow="visible"
             id="textext-d862ba06-1">
            <path
               inkscape:connector-curvature="0"
               style="stroke:none"
               d="m 4.5,-4.296875 c 0,-0.046875 -0.03125,-0.09375 -0.09375,-0.09375 -0.109375,0 -0.515625,0.390625 -0.671875,0.6875 C 3.515625,-4.25 3.125,-4.40625 2.796875,-4.40625 c -1.171875,0 -2.390625,1.46875 -2.390625,2.921875 0,0.96875 0.578125,1.59375 1.3125,1.59375 0.421875,0 0.8125,-0.234375 1.171875,-0.59375 -0.09375,0.34375 -0.421875,1.6875 -0.453125,1.78125 -0.078125,0.28125 -0.15625,0.3125 -0.71875,0.328125 -0.125,0 -0.21875,0 -0.21875,0.203125 0,0 0,0.109375 0.125,0.109375 0.3125,0 0.671875,-0.03125 1,-0.03125 0.328125,0 0.6875,0.03125 1.03125,0.03125 0.046875,0 0.171875,0 0.171875,-0.203125 C 3.828125,1.625 3.734375,1.625 3.5625,1.625 3.09375,1.625 3.09375,1.5625 3.09375,1.46875 3.09375,1.390625 3.109375,1.328125 3.125,1.25 z m -2.75,4.1875 c -0.609375,0 -0.640625,-0.765625 -0.640625,-0.9375 0,-0.484375 0.28125,-1.5625 0.453125,-1.984375 0.3125,-0.734375 0.828125,-1.15625 1.234375,-1.15625 0.65625,0 0.796875,0.8125 0.796875,0.875 0,0.0625 -0.546875,2.25 -0.578125,2.28125 C 2.859375,-0.75 2.296875,-0.109375 1.75,-0.109375 z"
               id="path4913" />
          </symbol>
          <symbol
             style="overflow:visible"
             overflow="visible"
             id="textext-d862ba06-2">
            <path
               inkscape:connector-curvature="0"
               style="stroke:none"
               d=""
               id="path4916" />
          </symbol>
          <symbol
             style="overflow:visible"
             overflow="visible"
             id="textext-d862ba06-3">
            <path
               inkscape:connector-curvature="0"
               style="stroke:none"
               d="m 2.328125,-4.4375 c 0,-0.1875 0,-0.1875 -0.203125,-0.1875 -0.453125,0.4375 -1.078125,0.4375 -1.359375,0.4375 l 0,0.25 c 0.15625,0 0.625,0 1,-0.1875 l 0,3.546875 c 0,0.234375 0,0.328125 -0.6875,0.328125 l -0.265625,0 0,0.25 c 0.125,0 0.984375,-0.03125 1.234375,-0.03125 0.21875,0 1.09375,0.03125 1.25,0.03125 l 0,-0.25 -0.265625,0 c -0.703125,0 -0.703125,-0.09375 -0.703125,-0.328125 z"
               id="path4919" />
          </symbol>
        </g>
      </defs>
      <g
         id="textext-d862ba06-4">
        <g
           style="fill:#000000;fill-opacity:1"
           id="g4922">
          <use
             height="360"
             width="360"
             xlink:href="#textext-d862ba06-1"
             x="223.43201"
             y="134.765"
             id="use4924" />
        </g>
        <g
           style="fill:#000000;fill-opacity:1"
           id="g4926">
          <use
             height="360"
             width="360"
             xlink:href="#textext-d862ba06-3"
             x="227.88"
             y="136.259"
             id="use4928" />
        </g>
      </g>
    </g>
    <g
       id="g5054"
       ns0:preamble=""
       ns0:text="$q_2$"
       transform="translate(61.774552,807.35558)">
      <defs
         id="defs5056">
        <g
           id="g5058">
          <symbol
             style="overflow:visible"
             id="textext-726c0b90-0"
             overflow="visible">
            <path
               inkscape:connector-curvature="0"
               id="path5061"
               d=""
               style="stroke:none" />
          </symbol>
          <symbol
             style="overflow:visible"
             id="textext-726c0b90-1"
             overflow="visible">
            <path
               inkscape:connector-curvature="0"
               id="path5064"
               d="m 4.5,-4.296875 c 0,-0.046875 -0.03125,-0.09375 -0.09375,-0.09375 -0.109375,0 -0.515625,0.390625 -0.671875,0.6875 C 3.515625,-4.25 3.125,-4.40625 2.796875,-4.40625 c -1.171875,0 -2.390625,1.46875 -2.390625,2.921875 0,0.96875 0.578125,1.59375 1.3125,1.59375 0.421875,0 0.8125,-0.234375 1.171875,-0.59375 -0.09375,0.34375 -0.421875,1.6875 -0.453125,1.78125 -0.078125,0.28125 -0.15625,0.3125 -0.71875,0.328125 -0.125,0 -0.21875,0 -0.21875,0.203125 0,0 0,0.109375 0.125,0.109375 0.3125,0 0.671875,-0.03125 1,-0.03125 0.328125,0 0.6875,0.03125 1.03125,0.03125 0.046875,0 0.171875,0 0.171875,-0.203125 C 3.828125,1.625 3.734375,1.625 3.5625,1.625 3.09375,1.625 3.09375,1.5625 3.09375,1.46875 3.09375,1.390625 3.109375,1.328125 3.125,1.25 z m -2.75,4.1875 c -0.609375,0 -0.640625,-0.765625 -0.640625,-0.9375 0,-0.484375 0.28125,-1.5625 0.453125,-1.984375 0.3125,-0.734375 0.828125,-1.15625 1.234375,-1.15625 0.65625,0 0.796875,0.8125 0.796875,0.875 0,0.0625 -0.546875,2.25 -0.578125,2.28125 C 2.859375,-0.75 2.296875,-0.109375 1.75,-0.109375 z"
               style="stroke:none" />
          </symbol>
          <symbol
             style="overflow:visible"
             id="textext-726c0b90-2"
             overflow="visible">
            <path
               inkscape:connector-curvature="0"
               id="path5067"
               d=""
               style="stroke:none" />
          </symbol>
          <symbol
             style="overflow:visible"
             id="textext-726c0b90-3"
             overflow="visible">
            <path
               inkscape:connector-curvature="0"
               id="path5070"
               d="m 3.515625,-1.265625 -0.234375,0 c -0.015625,0.15625 -0.09375,0.5625 -0.1875,0.625 -0.046875,0.046875 -0.578125,0.046875 -0.6875,0.046875 l -1.28125,0 c 0.734375,-0.640625 0.984375,-0.84375 1.390625,-1.171875 0.515625,-0.40625 1,-0.84375 1,-1.5 0,-0.84375 -0.734375,-1.359375 -1.625,-1.359375 -0.859375,0 -1.453125,0.609375 -1.453125,1.25 0,0.34375 0.296875,0.390625 0.375,0.390625 0.15625,0 0.359375,-0.125 0.359375,-0.375 0,-0.125 -0.046875,-0.375 -0.40625,-0.375 C 0.984375,-4.21875 1.453125,-4.375 1.78125,-4.375 c 0.703125,0 1.0625,0.546875 1.0625,1.109375 0,0.609375 -0.4375,1.078125 -0.65625,1.328125 L 0.515625,-0.265625 C 0.4375,-0.203125 0.4375,-0.1875 0.4375,0 l 2.875,0 z"
               style="stroke:none" />
          </symbol>
        </g>
      </defs>
      <g
         id="textext-726c0b90-4">
        <g
           id="g5073"
           style="fill:#000000;fill-opacity:1">
          <use
             height="360"
             width="360"
             id="use5075"
             y="134.765"
             x="223.43201"
             xlink:href="#textext-726c0b90-1" />
        </g>
        <g
           id="g5077"
           style="fill:#000000;fill-opacity:1">
          <use
             height="360"
             width="360"
             id="use5079"
             y="136.259"
             x="227.88"
             xlink:href="#textext-726c0b90-3" />
        </g>
      </g>
    </g>
    <g
       transform="translate(94.233787,742.30109)"
       ns0:text="$q_{n+1}$"
       ns0:preamble=""
       id="g5237">
      <defs
         id="defs5239">
        <g
           id="g5241">
          <symbol
             style="overflow:visible"
             overflow="visible"
             id="textext-fcfaf03e-0">
            <path
               inkscape:connector-curvature="0"
               style="stroke:none"
               d=""
               id="path5244" />
          </symbol>
          <symbol
             style="overflow:visible"
             overflow="visible"
             id="textext-fcfaf03e-1">
            <path
               inkscape:connector-curvature="0"
               style="stroke:none"
               d="m 4.5,-4.296875 c 0,-0.046875 -0.03125,-0.09375 -0.09375,-0.09375 -0.109375,0 -0.515625,0.390625 -0.671875,0.6875 C 3.515625,-4.25 3.125,-4.40625 2.796875,-4.40625 c -1.171875,0 -2.390625,1.46875 -2.390625,2.921875 0,0.96875 0.578125,1.59375 1.3125,1.59375 0.421875,0 0.8125,-0.234375 1.171875,-0.59375 -0.09375,0.34375 -0.421875,1.6875 -0.453125,1.78125 -0.078125,0.28125 -0.15625,0.3125 -0.71875,0.328125 -0.125,0 -0.21875,0 -0.21875,0.203125 0,0 0,0.109375 0.125,0.109375 0.3125,0 0.671875,-0.03125 1,-0.03125 0.328125,0 0.6875,0.03125 1.03125,0.03125 0.046875,0 0.171875,0 0.171875,-0.203125 C 3.828125,1.625 3.734375,1.625 3.5625,1.625 3.09375,1.625 3.09375,1.5625 3.09375,1.46875 3.09375,1.390625 3.109375,1.328125 3.125,1.25 z m -2.75,4.1875 c -0.609375,0 -0.640625,-0.765625 -0.640625,-0.9375 0,-0.484375 0.28125,-1.5625 0.453125,-1.984375 0.3125,-0.734375 0.828125,-1.15625 1.234375,-1.15625 0.65625,0 0.796875,0.8125 0.796875,0.875 0,0.0625 -0.546875,2.25 -0.578125,2.28125 C 2.859375,-0.75 2.296875,-0.109375 1.75,-0.109375 z"
               id="path5247" />
          </symbol>
          <symbol
             style="overflow:visible"
             overflow="visible"
             id="textext-fcfaf03e-2">
            <path
               inkscape:connector-curvature="0"
               style="stroke:none"
               d=""
               id="path5250" />
          </symbol>
          <symbol
             style="overflow:visible"
             overflow="visible"
             id="textext-fcfaf03e-3">
            <path
               inkscape:connector-curvature="0"
               style="stroke:none"
               d="m 0.84375,-0.4375 c -0.015625,0.09375 -0.0625,0.265625 -0.0625,0.28125 0,0.15625 0.125,0.21875 0.234375,0.21875 0.125,0 0.234375,-0.078125 0.28125,-0.140625 0.03125,-0.0625 0.078125,-0.296875 0.125,-0.4375 0.03125,-0.125 0.109375,-0.453125 0.140625,-0.625 0.046875,-0.15625 0.09375,-0.3125 0.125,-0.46875 0.078125,-0.28125 0.09375,-0.34375 0.296875,-0.625 C 2.171875,-2.515625 2.5,-2.875 3.03125,-2.875 c 0.390625,0 0.40625,0.359375 0.40625,0.484375 0,0.421875 -0.296875,1.1875 -0.40625,1.484375 -0.078125,0.203125 -0.109375,0.265625 -0.109375,0.375 0,0.375 0.296875,0.59375 0.65625,0.59375 0.703125,0 1,-0.953125 1,-1.0625 0,-0.09375 -0.078125,-0.09375 -0.109375,-0.09375 -0.09375,0 -0.09375,0.046875 -0.125,0.125 C 4.1875,-0.40625 3.875,-0.125 3.609375,-0.125 c -0.15625,0 -0.1875,-0.09375 -0.1875,-0.25 0,-0.15625 0.046875,-0.25 0.171875,-0.5625 0.078125,-0.21875 0.359375,-0.953125 0.359375,-1.34375 0,-0.671875 -0.53125,-0.796875 -0.90625,-0.796875 -0.578125,0 -0.96875,0.359375 -1.171875,0.640625 -0.046875,-0.484375 -0.453125,-0.640625 -0.75,-0.640625 -0.296875,0 -0.453125,0.21875 -0.546875,0.375 -0.15625,0.265625 -0.25,0.65625 -0.25,0.703125 0,0.078125 0.09375,0.078125 0.125,0.078125 0.09375,0 0.09375,-0.015625 0.140625,-0.203125 0.109375,-0.40625 0.25,-0.75 0.515625,-0.75 0.1875,0 0.234375,0.15625 0.234375,0.34375 0,0.125 -0.0625,0.390625 -0.125,0.578125 -0.046875,0.1875 -0.109375,0.46875 -0.140625,0.625 z"
               id="path5253" />
          </symbol>
          <symbol
             style="overflow:visible"
             overflow="visible"
             id="textext-fcfaf03e-4">
            <path
               inkscape:connector-curvature="0"
               style="stroke:none"
               d=""
               id="path5256" />
          </symbol>
          <symbol
             style="overflow:visible"
             overflow="visible"
             id="textext-fcfaf03e-5">
            <path
               inkscape:connector-curvature="0"
               style="stroke:none"
               d="m 3.21875,-1.578125 2.140625,0 c 0.09375,0 0.25,0 0.25,-0.15625 0,-0.1875 -0.15625,-0.1875 -0.25,-0.1875 l -2.140625,0 0,-2.140625 c 0,-0.078125 0,-0.25 -0.15625,-0.25 -0.171875,0 -0.171875,0.15625 -0.171875,0.25 l 0,2.140625 -2.140625,0 c -0.09375,0 -0.265625,0 -0.265625,0.171875 0,0.171875 0.15625,0.171875 0.265625,0.171875 l 2.140625,0 0,2.140625 c 0,0.09375 0,0.265625 0.15625,0.265625 0.171875,0 0.171875,-0.171875 0.171875,-0.265625 z"
               id="path5259" />
          </symbol>
          <symbol
             style="overflow:visible"
             overflow="visible"
             id="textext-fcfaf03e-6">
            <path
               inkscape:connector-curvature="0"
               style="stroke:none"
               d="m 2.328125,-4.4375 c 0,-0.1875 0,-0.1875 -0.203125,-0.1875 -0.453125,0.4375 -1.078125,0.4375 -1.359375,0.4375 l 0,0.25 c 0.15625,0 0.625,0 1,-0.1875 l 0,3.546875 c 0,0.234375 0,0.328125 -0.6875,0.328125 l -0.265625,0 0,0.25 c 0.125,0 0.984375,-0.03125 1.234375,-0.03125 0.21875,0 1.09375,0.03125 1.25,0.03125 l 0,-0.25 -0.265625,0 c -0.703125,0 -0.703125,-0.09375 -0.703125,-0.328125 z"
               id="path5262" />
          </symbol>
        </g>
      </defs>
      <g
         id="textext-fcfaf03e-7">
        <g
           style="fill:#000000;fill-opacity:1"
           id="g5265">
          <use
             height="360"
             width="360"
             xlink:href="#textext-fcfaf03e-1"
             x="223.43201"
             y="134.765"
             id="use5267" />
        </g>
        <g
           style="fill:#000000;fill-opacity:1"
           id="g5269">
          <use
             height="360"
             width="360"
             xlink:href="#textext-fcfaf03e-3"
             x="227.88"
             y="136.259"
             id="use5271" />
        </g>
        <g
           style="fill:#000000;fill-opacity:1"
           id="g5273">
          <use
             height="360"
             width="360"
             xlink:href="#textext-fcfaf03e-5"
             x="232.804"
             y="136.259"
             id="use5275" />
          <use
             height="360"
             width="360"
             xlink:href="#textext-fcfaf03e-6"
             x="238.92003"
             y="136.259"
             id="use5277" />
        </g>
      </g>
    </g>
    <path
       sodipodi:open="true"
       sodipodi:end="6.2751625"
       sodipodi:start="5.7838302"
       transform="matrix(1.4871292,0,0,1.4508575,35.30588,783.08076)"
       d="m 122.76541,131.92575 c 3.01342,5.6626 4.6165,12.00011 4.66698,18.45013"
       sodipodi:ry="39.185841"
       sodipodi:rx="38.230087"
       sodipodi:cy="150.69026"
       sodipodi:cx="89.203537"
       id="path5381"
       style="fill:none;stroke:#000000;stroke-width:0.68079019;stroke-miterlimit:4;stroke-opacity:1;stroke-dasharray:none;marker-start:url(#Arrow1Sstart)"
       sodipodi:type="arc" />
    <path
       sodipodi:open="true"
       sodipodi:end="6.2899002"
       sodipodi:start="5.4873376"
       transform="matrix(1.1863846,0,0,1.1574482,133.87429,785.12848)"
       d="m 115.95234,122.69366 c 7.40666,7.4348 11.55003,17.63396 11.48042,28.25973"
       sodipodi:ry="39.185841"
       sodipodi:rx="38.230087"
       sodipodi:cy="150.69026"
       sodipodi:cx="89.203537"
       id="path5381-2"
       style="fill:none;stroke:#000000;stroke-width:0.85336822;stroke-miterlimit:4;stroke-opacity:1;stroke-dasharray:none;marker-start:url(#Arrow1Sstart)"
       sodipodi:type="arc" />
    <path
       sodipodi:open="true"
       sodipodi:end="6.2633433"
       sodipodi:start="5.0372073"
       transform="matrix(0.68938773,0,0,0.67257328,232.65421,794.93287)"
       d="m 101.40416,113.5535 c 15.28996,5.27755 25.70184,19.82559 26.02194,36.35929"
       sodipodi:ry="39.185841"
       sodipodi:rx="38.230087"
       sodipodi:cy="150.69026"
       sodipodi:cx="89.203537"
       id="path5381-26"
       style="fill:none;stroke:#000000;stroke-width:1.46858275;stroke-miterlimit:4;stroke-opacity:1;stroke-dasharray:none;marker-start:url(#Arrow1Sstart)"
       sodipodi:type="arc" />
    <g
       id="g6087"
       ns0:preamble=""
       ns0:text="$m_0$"
       transform="translate(-77.95156,864.12085)">
      <defs
         id="defs6089">
        <g
           id="g6091">
          <symbol
             style="overflow:visible"
             id="textext-998f6c43-0"
             overflow="visible">
            <path
               inkscape:connector-curvature="0"
               id="path6094"
               d=""
               style="stroke:none" />
          </symbol>
          <symbol
             style="overflow:visible"
             id="textext-998f6c43-1"
             overflow="visible">
            <path
               inkscape:connector-curvature="0"
               id="path6097"
               d="m 0.875,-0.59375 c -0.03125,0.15625 -0.09375,0.390625 -0.09375,0.4375 0,0.171875 0.140625,0.265625 0.296875,0.265625 0.125,0 0.296875,-0.078125 0.375,-0.28125 0,-0.015625 0.125,-0.484375 0.1875,-0.734375 l 0.21875,-0.890625 C 1.90625,-2.03125 1.96875,-2.25 2.03125,-2.46875 c 0.03125,-0.171875 0.109375,-0.46875 0.125,-0.5 0.140625,-0.3125 0.671875,-1.21875 1.625,-1.21875 0.453125,0 0.53125,0.375 0.53125,0.703125 0,0.25 -0.0625,0.53125 -0.140625,0.828125 L 3.890625,-1.5 3.6875,-0.75 c -0.03125,0.203125 -0.125,0.546875 -0.125,0.59375 0,0.171875 0.140625,0.265625 0.28125,0.265625 0.3125,0 0.375,-0.25 0.453125,-0.5625 0.140625,-0.5625 0.515625,-2.015625 0.59375,-2.40625 0.03125,-0.125 0.5625,-1.328125 1.65625,-1.328125 0.421875,0 0.53125,0.34375 0.53125,0.703125 0,0.5625 -0.421875,1.703125 -0.625,2.234375 -0.078125,0.234375 -0.125,0.34375 -0.125,0.546875 0,0.46875 0.34375,0.8125 0.8125,0.8125 0.9375,0 1.3125,-1.453125 1.3125,-1.53125 0,-0.109375 -0.09375,-0.109375 -0.125,-0.109375 -0.09375,0 -0.09375,0.03125 -0.140625,0.1875 -0.15625,0.53125 -0.46875,1.234375 -1.015625,1.234375 -0.171875,0 -0.25,-0.09375 -0.25,-0.328125 0,-0.25 0.09375,-0.484375 0.1875,-0.703125 0.1875,-0.53125 0.609375,-1.625 0.609375,-2.203125 0,-0.640625 -0.40625,-1.0625 -1.15625,-1.0625 -0.734375,0 -1.25,0.4375 -1.625,0.96875 0,-0.125 -0.03125,-0.46875 -0.3125,-0.703125 -0.25,-0.21875 -0.5625,-0.265625 -0.8125,-0.265625 -0.90625,0 -1.390625,0.640625 -1.5625,0.875 -0.046875,-0.578125 -0.46875,-0.875 -0.921875,-0.875 -0.453125,0 -0.640625,0.390625 -0.734375,0.5625 -0.171875,0.359375 -0.296875,0.9375 -0.296875,0.96875 0,0.109375 0.09375,0.109375 0.109375,0.109375 0.109375,0 0.109375,-0.015625 0.171875,-0.234375 0.171875,-0.703125 0.375,-1.1875 0.734375,-1.1875 0.15625,0 0.296875,0.078125 0.296875,0.453125 0,0.21875 -0.03125,0.328125 -0.15625,0.84375 z"
               style="stroke:none" />
          </symbol>
          <symbol
             style="overflow:visible"
             id="textext-998f6c43-2"
             overflow="visible">
            <path
               inkscape:connector-curvature="0"
               id="path6100"
               d=""
               style="stroke:none" />
          </symbol>
          <symbol
             style="overflow:visible"
             id="textext-998f6c43-3"
             overflow="visible">
            <path
               inkscape:connector-curvature="0"
               id="path6103"
               d="M 3.59375,-2.21875 C 3.59375,-2.984375 3.5,-3.546875 3.1875,-4.03125 2.96875,-4.34375 2.53125,-4.625 1.984375,-4.625 c -1.625,0 -1.625,1.90625 -1.625,2.40625 0,0.5 0,2.359375 1.625,2.359375 1.609375,0 1.609375,-1.859375 1.609375,-2.359375 z M 1.984375,-0.0625 c -0.328125,0 -0.75,-0.1875 -0.890625,-0.75 C 1,-1.21875 1,-1.796875 1,-2.3125 1,-2.828125 1,-3.359375 1.09375,-3.734375 1.25,-4.28125 1.6875,-4.4375 1.984375,-4.4375 c 0.375,0 0.734375,0.234375 0.859375,0.640625 0.109375,0.375 0.125,0.875 0.125,1.484375 0,0.515625 0,1.03125 -0.09375,1.46875 -0.140625,0.640625 -0.609375,0.78125 -0.890625,0.78125 z"
               style="stroke:none" />
          </symbol>
        </g>
      </defs>
      <g
         id="textext-998f6c43-4">
        <g
           id="g6106"
           style="fill:#000000;fill-opacity:1">
          <use
             height="360"
             width="360"
             id="use6108"
             y="134.765"
             x="223.43201"
             xlink:href="#textext-998f6c43-1" />
        </g>
        <g
           id="g6110"
           style="fill:#000000;fill-opacity:1">
          <use
             height="360"
             width="360"
             id="use6112"
             y="136.259"
             x="232.179"
             xlink:href="#textext-998f6c43-3" />
        </g>
      </g>
    </g>
    <g
       transform="translate(-3.402887,815.69608)"
       ns0:text="$m_1$"
       ns0:preamble=""
       id="g6370">
      <defs
         id="defs6372">
        <g
           id="g6374">
          <symbol
             style="overflow:visible"
             overflow="visible"
             id="textext-b1060afd-0">
            <path
               inkscape:connector-curvature="0"
               style="stroke:none"
               d=""
               id="path6377" />
          </symbol>
          <symbol
             style="overflow:visible"
             overflow="visible"
             id="textext-b1060afd-1">
            <path
               inkscape:connector-curvature="0"
               style="stroke:none"
               d="m 0.875,-0.59375 c -0.03125,0.15625 -0.09375,0.390625 -0.09375,0.4375 0,0.171875 0.140625,0.265625 0.296875,0.265625 0.125,0 0.296875,-0.078125 0.375,-0.28125 0,-0.015625 0.125,-0.484375 0.1875,-0.734375 l 0.21875,-0.890625 C 1.90625,-2.03125 1.96875,-2.25 2.03125,-2.46875 c 0.03125,-0.171875 0.109375,-0.46875 0.125,-0.5 0.140625,-0.3125 0.671875,-1.21875 1.625,-1.21875 0.453125,0 0.53125,0.375 0.53125,0.703125 0,0.25 -0.0625,0.53125 -0.140625,0.828125 L 3.890625,-1.5 3.6875,-0.75 c -0.03125,0.203125 -0.125,0.546875 -0.125,0.59375 0,0.171875 0.140625,0.265625 0.28125,0.265625 0.3125,0 0.375,-0.25 0.453125,-0.5625 0.140625,-0.5625 0.515625,-2.015625 0.59375,-2.40625 0.03125,-0.125 0.5625,-1.328125 1.65625,-1.328125 0.421875,0 0.53125,0.34375 0.53125,0.703125 0,0.5625 -0.421875,1.703125 -0.625,2.234375 -0.078125,0.234375 -0.125,0.34375 -0.125,0.546875 0,0.46875 0.34375,0.8125 0.8125,0.8125 0.9375,0 1.3125,-1.453125 1.3125,-1.53125 0,-0.109375 -0.09375,-0.109375 -0.125,-0.109375 -0.09375,0 -0.09375,0.03125 -0.140625,0.1875 -0.15625,0.53125 -0.46875,1.234375 -1.015625,1.234375 -0.171875,0 -0.25,-0.09375 -0.25,-0.328125 0,-0.25 0.09375,-0.484375 0.1875,-0.703125 0.1875,-0.53125 0.609375,-1.625 0.609375,-2.203125 0,-0.640625 -0.40625,-1.0625 -1.15625,-1.0625 -0.734375,0 -1.25,0.4375 -1.625,0.96875 0,-0.125 -0.03125,-0.46875 -0.3125,-0.703125 -0.25,-0.21875 -0.5625,-0.265625 -0.8125,-0.265625 -0.90625,0 -1.390625,0.640625 -1.5625,0.875 -0.046875,-0.578125 -0.46875,-0.875 -0.921875,-0.875 -0.453125,0 -0.640625,0.390625 -0.734375,0.5625 -0.171875,0.359375 -0.296875,0.9375 -0.296875,0.96875 0,0.109375 0.09375,0.109375 0.109375,0.109375 0.109375,0 0.109375,-0.015625 0.171875,-0.234375 0.171875,-0.703125 0.375,-1.1875 0.734375,-1.1875 0.15625,0 0.296875,0.078125 0.296875,0.453125 0,0.21875 -0.03125,0.328125 -0.15625,0.84375 z"
               id="path6380" />
          </symbol>
          <symbol
             style="overflow:visible"
             overflow="visible"
             id="textext-b1060afd-2">
            <path
               inkscape:connector-curvature="0"
               style="stroke:none"
               d=""
               id="path6383" />
          </symbol>
          <symbol
             style="overflow:visible"
             overflow="visible"
             id="textext-b1060afd-3">
            <path
               inkscape:connector-curvature="0"
               style="stroke:none"
               d="m 2.328125,-4.4375 c 0,-0.1875 0,-0.1875 -0.203125,-0.1875 -0.453125,0.4375 -1.078125,0.4375 -1.359375,0.4375 l 0,0.25 c 0.15625,0 0.625,0 1,-0.1875 l 0,3.546875 c 0,0.234375 0,0.328125 -0.6875,0.328125 l -0.265625,0 0,0.25 c 0.125,0 0.984375,-0.03125 1.234375,-0.03125 0.21875,0 1.09375,0.03125 1.25,0.03125 l 0,-0.25 -0.265625,0 c -0.703125,0 -0.703125,-0.09375 -0.703125,-0.328125 z"
               id="path6386" />
          </symbol>
        </g>
      </defs>
      <g
         id="textext-b1060afd-4">
        <g
           style="fill:#000000;fill-opacity:1"
           id="g6389">
          <use
             height="360"
             width="360"
             xlink:href="#textext-b1060afd-1"
             x="223.43201"
             y="134.765"
             id="use6391" />
        </g>
        <g
           style="fill:#000000;fill-opacity:1"
           id="g6393">
          <use
             height="360"
             width="360"
             xlink:href="#textext-b1060afd-3"
             x="232.179"
             y="136.259"
             id="use6395" />
        </g>
      </g>
    </g>
    <g
       id="g6685"
       ns0:preamble=""
       ns0:text="$m_{n+1}$"
       transform="translate(56.490918,671.0589)">
      <defs
         id="defs6687">
        <g
           id="g6689">
          <symbol
             style="overflow:visible"
             id="textext-a452b3d5-0"
             overflow="visible">
            <path
               inkscape:connector-curvature="0"
               id="path6692"
               d=""
               style="stroke:none" />
          </symbol>
          <symbol
             style="overflow:visible"
             id="textext-a452b3d5-1"
             overflow="visible">
            <path
               inkscape:connector-curvature="0"
               id="path6695"
               d="m 0.875,-0.59375 c -0.03125,0.15625 -0.09375,0.390625 -0.09375,0.4375 0,0.171875 0.140625,0.265625 0.296875,0.265625 0.125,0 0.296875,-0.078125 0.375,-0.28125 0,-0.015625 0.125,-0.484375 0.1875,-0.734375 l 0.21875,-0.890625 C 1.90625,-2.03125 1.96875,-2.25 2.03125,-2.46875 c 0.03125,-0.171875 0.109375,-0.46875 0.125,-0.5 0.140625,-0.3125 0.671875,-1.21875 1.625,-1.21875 0.453125,0 0.53125,0.375 0.53125,0.703125 0,0.25 -0.0625,0.53125 -0.140625,0.828125 L 3.890625,-1.5 3.6875,-0.75 c -0.03125,0.203125 -0.125,0.546875 -0.125,0.59375 0,0.171875 0.140625,0.265625 0.28125,0.265625 0.3125,0 0.375,-0.25 0.453125,-0.5625 0.140625,-0.5625 0.515625,-2.015625 0.59375,-2.40625 0.03125,-0.125 0.5625,-1.328125 1.65625,-1.328125 0.421875,0 0.53125,0.34375 0.53125,0.703125 0,0.5625 -0.421875,1.703125 -0.625,2.234375 -0.078125,0.234375 -0.125,0.34375 -0.125,0.546875 0,0.46875 0.34375,0.8125 0.8125,0.8125 0.9375,0 1.3125,-1.453125 1.3125,-1.53125 0,-0.109375 -0.09375,-0.109375 -0.125,-0.109375 -0.09375,0 -0.09375,0.03125 -0.140625,0.1875 -0.15625,0.53125 -0.46875,1.234375 -1.015625,1.234375 -0.171875,0 -0.25,-0.09375 -0.25,-0.328125 0,-0.25 0.09375,-0.484375 0.1875,-0.703125 0.1875,-0.53125 0.609375,-1.625 0.609375,-2.203125 0,-0.640625 -0.40625,-1.0625 -1.15625,-1.0625 -0.734375,0 -1.25,0.4375 -1.625,0.96875 0,-0.125 -0.03125,-0.46875 -0.3125,-0.703125 -0.25,-0.21875 -0.5625,-0.265625 -0.8125,-0.265625 -0.90625,0 -1.390625,0.640625 -1.5625,0.875 -0.046875,-0.578125 -0.46875,-0.875 -0.921875,-0.875 -0.453125,0 -0.640625,0.390625 -0.734375,0.5625 -0.171875,0.359375 -0.296875,0.9375 -0.296875,0.96875 0,0.109375 0.09375,0.109375 0.109375,0.109375 0.109375,0 0.109375,-0.015625 0.171875,-0.234375 0.171875,-0.703125 0.375,-1.1875 0.734375,-1.1875 0.15625,0 0.296875,0.078125 0.296875,0.453125 0,0.21875 -0.03125,0.328125 -0.15625,0.84375 z"
               style="stroke:none" />
          </symbol>
          <symbol
             style="overflow:visible"
             id="textext-a452b3d5-2"
             overflow="visible">
            <path
               inkscape:connector-curvature="0"
               id="path6698"
               d=""
               style="stroke:none" />
          </symbol>
          <symbol
             style="overflow:visible"
             id="textext-a452b3d5-3"
             overflow="visible">
            <path
               inkscape:connector-curvature="0"
               id="path6701"
               d="m 0.84375,-0.4375 c -0.015625,0.09375 -0.0625,0.265625 -0.0625,0.28125 0,0.15625 0.125,0.21875 0.234375,0.21875 0.125,0 0.234375,-0.078125 0.28125,-0.140625 0.03125,-0.0625 0.078125,-0.296875 0.125,-0.4375 0.03125,-0.125 0.109375,-0.453125 0.140625,-0.625 0.046875,-0.15625 0.09375,-0.3125 0.125,-0.46875 0.078125,-0.28125 0.09375,-0.34375 0.296875,-0.625 C 2.171875,-2.515625 2.5,-2.875 3.03125,-2.875 c 0.390625,0 0.40625,0.359375 0.40625,0.484375 0,0.421875 -0.296875,1.1875 -0.40625,1.484375 -0.078125,0.203125 -0.109375,0.265625 -0.109375,0.375 0,0.375 0.296875,0.59375 0.65625,0.59375 0.703125,0 1,-0.953125 1,-1.0625 0,-0.09375 -0.078125,-0.09375 -0.109375,-0.09375 -0.09375,0 -0.09375,0.046875 -0.125,0.125 C 4.1875,-0.40625 3.875,-0.125 3.609375,-0.125 c -0.15625,0 -0.1875,-0.09375 -0.1875,-0.25 0,-0.15625 0.046875,-0.25 0.171875,-0.5625 0.078125,-0.21875 0.359375,-0.953125 0.359375,-1.34375 0,-0.671875 -0.53125,-0.796875 -0.90625,-0.796875 -0.578125,0 -0.96875,0.359375 -1.171875,0.640625 -0.046875,-0.484375 -0.453125,-0.640625 -0.75,-0.640625 -0.296875,0 -0.453125,0.21875 -0.546875,0.375 -0.15625,0.265625 -0.25,0.65625 -0.25,0.703125 0,0.078125 0.09375,0.078125 0.125,0.078125 0.09375,0 0.09375,-0.015625 0.140625,-0.203125 0.109375,-0.40625 0.25,-0.75 0.515625,-0.75 0.1875,0 0.234375,0.15625 0.234375,0.34375 0,0.125 -0.0625,0.390625 -0.125,0.578125 -0.046875,0.1875 -0.109375,0.46875 -0.140625,0.625 z"
               style="stroke:none" />
          </symbol>
          <symbol
             style="overflow:visible"
             id="textext-a452b3d5-4"
             overflow="visible">
            <path
               inkscape:connector-curvature="0"
               id="path6704"
               d=""
               style="stroke:none" />
          </symbol>
          <symbol
             style="overflow:visible"
             id="textext-a452b3d5-5"
             overflow="visible">
            <path
               inkscape:connector-curvature="0"
               id="path6707"
               d="m 3.21875,-1.578125 2.140625,0 c 0.09375,0 0.25,0 0.25,-0.15625 0,-0.1875 -0.15625,-0.1875 -0.25,-0.1875 l -2.140625,0 0,-2.140625 c 0,-0.078125 0,-0.25 -0.15625,-0.25 -0.171875,0 -0.171875,0.15625 -0.171875,0.25 l 0,2.140625 -2.140625,0 c -0.09375,0 -0.265625,0 -0.265625,0.171875 0,0.171875 0.15625,0.171875 0.265625,0.171875 l 2.140625,0 0,2.140625 c 0,0.09375 0,0.265625 0.15625,0.265625 0.171875,0 0.171875,-0.171875 0.171875,-0.265625 z"
               style="stroke:none" />
          </symbol>
          <symbol
             style="overflow:visible"
             id="textext-a452b3d5-6"
             overflow="visible">
            <path
               inkscape:connector-curvature="0"
               id="path6710"
               d="m 2.328125,-4.4375 c 0,-0.1875 0,-0.1875 -0.203125,-0.1875 -0.453125,0.4375 -1.078125,0.4375 -1.359375,0.4375 l 0,0.25 c 0.15625,0 0.625,0 1,-0.1875 l 0,3.546875 c 0,0.234375 0,0.328125 -0.6875,0.328125 l -0.265625,0 0,0.25 c 0.125,0 0.984375,-0.03125 1.234375,-0.03125 0.21875,0 1.09375,0.03125 1.25,0.03125 l 0,-0.25 -0.265625,0 c -0.703125,0 -0.703125,-0.09375 -0.703125,-0.328125 z"
               style="stroke:none" />
          </symbol>
        </g>
      </defs>
      <g
         id="textext-a452b3d5-7">
        <g
           id="g6713"
           style="fill:#000000;fill-opacity:1">
          <use
             height="360"
             width="360"
             id="use6715"
             y="134.765"
             x="223.43201"
             xlink:href="#textext-a452b3d5-1" />
        </g>
        <g
           id="g6717"
           style="fill:#000000;fill-opacity:1">
          <use
             height="360"
             width="360"
             id="use6719"
             y="136.259"
             x="232.179"
             xlink:href="#textext-a452b3d5-3" />
        </g>
        <g
           id="g6721"
           style="fill:#000000;fill-opacity:1">
          <use
             height="360"
             width="360"
             id="use6723"
             y="136.259"
             x="237.104"
             xlink:href="#textext-a452b3d5-5" />
          <use
             height="360"
             width="360"
             id="use6725"
             y="136.259"
             x="243.22002"
             xlink:href="#textext-a452b3d5-6" />
        </g>
      </g>
    </g>
    <g
       transform="translate(48.8449,755.1651)"
       ns0:text="$m_n$"
       ns0:preamble=""
       id="g7065">
      <defs
         id="defs7067">
        <g
           id="g7069">
          <symbol
             style="overflow:visible"
             overflow="visible"
             id="textext-c4d0d8e4-0">
            <path
               inkscape:connector-curvature="0"
               style="stroke:none"
               d=""
               id="path7072" />
          </symbol>
          <symbol
             style="overflow:visible"
             overflow="visible"
             id="textext-c4d0d8e4-1">
            <path
               inkscape:connector-curvature="0"
               style="stroke:none"
               d="m 0.875,-0.59375 c -0.03125,0.15625 -0.09375,0.390625 -0.09375,0.4375 0,0.171875 0.140625,0.265625 0.296875,0.265625 0.125,0 0.296875,-0.078125 0.375,-0.28125 0,-0.015625 0.125,-0.484375 0.1875,-0.734375 l 0.21875,-0.890625 C 1.90625,-2.03125 1.96875,-2.25 2.03125,-2.46875 c 0.03125,-0.171875 0.109375,-0.46875 0.125,-0.5 0.140625,-0.3125 0.671875,-1.21875 1.625,-1.21875 0.453125,0 0.53125,0.375 0.53125,0.703125 0,0.25 -0.0625,0.53125 -0.140625,0.828125 L 3.890625,-1.5 3.6875,-0.75 c -0.03125,0.203125 -0.125,0.546875 -0.125,0.59375 0,0.171875 0.140625,0.265625 0.28125,0.265625 0.3125,0 0.375,-0.25 0.453125,-0.5625 0.140625,-0.5625 0.515625,-2.015625 0.59375,-2.40625 0.03125,-0.125 0.5625,-1.328125 1.65625,-1.328125 0.421875,0 0.53125,0.34375 0.53125,0.703125 0,0.5625 -0.421875,1.703125 -0.625,2.234375 -0.078125,0.234375 -0.125,0.34375 -0.125,0.546875 0,0.46875 0.34375,0.8125 0.8125,0.8125 0.9375,0 1.3125,-1.453125 1.3125,-1.53125 0,-0.109375 -0.09375,-0.109375 -0.125,-0.109375 -0.09375,0 -0.09375,0.03125 -0.140625,0.1875 -0.15625,0.53125 -0.46875,1.234375 -1.015625,1.234375 -0.171875,0 -0.25,-0.09375 -0.25,-0.328125 0,-0.25 0.09375,-0.484375 0.1875,-0.703125 0.1875,-0.53125 0.609375,-1.625 0.609375,-2.203125 0,-0.640625 -0.40625,-1.0625 -1.15625,-1.0625 -0.734375,0 -1.25,0.4375 -1.625,0.96875 0,-0.125 -0.03125,-0.46875 -0.3125,-0.703125 -0.25,-0.21875 -0.5625,-0.265625 -0.8125,-0.265625 -0.90625,0 -1.390625,0.640625 -1.5625,0.875 -0.046875,-0.578125 -0.46875,-0.875 -0.921875,-0.875 -0.453125,0 -0.640625,0.390625 -0.734375,0.5625 -0.171875,0.359375 -0.296875,0.9375 -0.296875,0.96875 0,0.109375 0.09375,0.109375 0.109375,0.109375 0.109375,0 0.109375,-0.015625 0.171875,-0.234375 0.171875,-0.703125 0.375,-1.1875 0.734375,-1.1875 0.15625,0 0.296875,0.078125 0.296875,0.453125 0,0.21875 -0.03125,0.328125 -0.15625,0.84375 z"
               id="path7075" />
          </symbol>
          <symbol
             style="overflow:visible"
             overflow="visible"
             id="textext-c4d0d8e4-2">
            <path
               inkscape:connector-curvature="0"
               style="stroke:none"
               d=""
               id="path7078" />
          </symbol>
          <symbol
             style="overflow:visible"
             overflow="visible"
             id="textext-c4d0d8e4-3">
            <path
               inkscape:connector-curvature="0"
               style="stroke:none"
               d="m 0.84375,-0.4375 c -0.015625,0.09375 -0.0625,0.265625 -0.0625,0.28125 0,0.15625 0.125,0.21875 0.234375,0.21875 0.125,0 0.234375,-0.078125 0.28125,-0.140625 0.03125,-0.0625 0.078125,-0.296875 0.125,-0.4375 0.03125,-0.125 0.109375,-0.453125 0.140625,-0.625 0.046875,-0.15625 0.09375,-0.3125 0.125,-0.46875 0.078125,-0.28125 0.09375,-0.34375 0.296875,-0.625 C 2.171875,-2.515625 2.5,-2.875 3.03125,-2.875 c 0.390625,0 0.40625,0.359375 0.40625,0.484375 0,0.421875 -0.296875,1.1875 -0.40625,1.484375 -0.078125,0.203125 -0.109375,0.265625 -0.109375,0.375 0,0.375 0.296875,0.59375 0.65625,0.59375 0.703125,0 1,-0.953125 1,-1.0625 0,-0.09375 -0.078125,-0.09375 -0.109375,-0.09375 -0.09375,0 -0.09375,0.046875 -0.125,0.125 C 4.1875,-0.40625 3.875,-0.125 3.609375,-0.125 c -0.15625,0 -0.1875,-0.09375 -0.1875,-0.25 0,-0.15625 0.046875,-0.25 0.171875,-0.5625 0.078125,-0.21875 0.359375,-0.953125 0.359375,-1.34375 0,-0.671875 -0.53125,-0.796875 -0.90625,-0.796875 -0.578125,0 -0.96875,0.359375 -1.171875,0.640625 -0.046875,-0.484375 -0.453125,-0.640625 -0.75,-0.640625 -0.296875,0 -0.453125,0.21875 -0.546875,0.375 -0.15625,0.265625 -0.25,0.65625 -0.25,0.703125 0,0.078125 0.09375,0.078125 0.125,0.078125 0.09375,0 0.09375,-0.015625 0.140625,-0.203125 0.109375,-0.40625 0.25,-0.75 0.515625,-0.75 0.1875,0 0.234375,0.15625 0.234375,0.34375 0,0.125 -0.0625,0.390625 -0.125,0.578125 -0.046875,0.1875 -0.109375,0.46875 -0.140625,0.625 z"
               id="path7081" />
          </symbol>
        </g>
      </defs>
      <g
         id="textext-c4d0d8e4-4">
        <g
           style="fill:#000000;fill-opacity:1"
           id="g7084">
          <use
             height="360"
             width="360"
             xlink:href="#textext-c4d0d8e4-1"
             x="223.43201"
             y="134.765"
             id="use7086" />
        </g>
        <g
           style="fill:#000000;fill-opacity:1"
           id="g7088">
          <use
             height="360"
             width="360"
             xlink:href="#textext-c4d0d8e4-3"
             x="232.179"
             y="136.259"
             id="use7090" />
        </g>
      </g>
    </g>
    <path
       inkscape:connector-curvature="0"
       id="path7276"
       d="m 39.504425,1008.7314 0,28.6726"
       style="fill:none;stroke:#000000;stroke-width:1px;stroke-linecap:butt;stroke-linejoin:miter;stroke-opacity:1" />
    <path
       sodipodi:nodetypes="cc"
       inkscape:connector-curvature="0"
       id="path7276-2"
       d="m 167.8938,1016.7491 0,20.2508"
       style="fill:none;stroke:#000000;stroke-width:1px;stroke-linecap:butt;stroke-linejoin:miter;stroke-opacity:1" />
    <path
       sodipodi:nodetypes="cc"
       inkscape:connector-curvature="0"
       id="path7296"
       d="m 39.504425,1032.289 54.639111,0"
       style="fill:none;stroke:#000000;stroke-width:1px;stroke-linecap:butt;stroke-linejoin:miter;stroke-opacity:1;marker-start:none" />
    <path
       sodipodi:nodetypes="cc"
       style="fill:none;stroke:#000000;stroke-width:1px;stroke-linecap:butt;stroke-linejoin:miter;stroke-opacity:1;marker-end:url(#Arrow1Send)"
       d="m 112.74623,1032.2889 53.06221,0"
       id="path7298"
       inkscape:connector-curvature="0" />
    <g
       id="g8966"
       transform="translate(-133.30401,880.3294)"
       ns0:preamble=""
       ns0:text="$\\hat{i}_x$">
      <defs
         id="defs8968">
        <g
           id="g8970">
          <symbol
             id="textext-77f6b85a-0"
             overflow="visible"
             style="overflow:visible">
            <path
               id="path8973"
               d=""
               style="stroke:none"
               inkscape:connector-curvature="0" />
          </symbol>
          <symbol
             id="textext-77f6b85a-1"
             overflow="visible"
             style="overflow:visible">
            <path
               id="path8976"
               d="M 2.5,-6.921875 1.15625,-5.5625 1.328125,-5.390625 2.5,-6.40625 3.640625,-5.390625 3.8125,-5.5625 z"
               style="stroke:none"
               inkscape:connector-curvature="0" />
          </symbol>
          <symbol
             id="textext-77f6b85a-2"
             overflow="visible"
             style="overflow:visible">
            <path
               id="path8979"
               d=""
               style="stroke:none"
               inkscape:connector-curvature="0" />
          </symbol>
          <symbol
             id="textext-77f6b85a-3"
             overflow="visible"
             style="overflow:visible">
            <path
               id="path8982"
               d="m 2.828125,-6.234375 c 0,-0.203125 -0.140625,-0.359375 -0.359375,-0.359375 -0.28125,0 -0.546875,0.265625 -0.546875,0.53125 0,0.1875 0.140625,0.359375 0.375,0.359375 0.234375,0 0.53125,-0.234375 0.53125,-0.53125 z m -0.75,3.75 c 0.109375,-0.28125 0.109375,-0.3125 0.21875,-0.578125 0.078125,-0.203125 0.125,-0.34375 0.125,-0.53125 0,-0.4375 -0.3125,-0.8125 -0.8125,-0.8125 -0.9375,0 -1.3125,1.453125 -1.3125,1.53125 0,0.109375 0.09375,0.109375 0.109375,0.109375 0.109375,0 0.109375,-0.03125 0.15625,-0.1875 0.28125,-0.9375 0.671875,-1.234375 1.015625,-1.234375 0.078125,0 0.25,0 0.25,0.3125 0,0.21875 -0.078125,0.421875 -0.109375,0.53125 -0.078125,0.25 -0.53125,1.40625 -0.6875,1.84375 -0.109375,0.25 -0.234375,0.578125 -0.234375,0.796875 0,0.46875 0.34375,0.8125 0.8125,0.8125 0.9375,0 1.3125,-1.4375 1.3125,-1.53125 0,-0.109375 -0.09375,-0.109375 -0.125,-0.109375 -0.09375,0 -0.09375,0.03125 -0.140625,0.1875 -0.1875,0.625 -0.515625,1.234375 -1.015625,1.234375 -0.171875,0 -0.25,-0.09375 -0.25,-0.328125 0,-0.25 0.0625,-0.390625 0.296875,-1 z"
               style="stroke:none"
               inkscape:connector-curvature="0" />
          </symbol>
          <symbol
             id="textext-77f6b85a-4"
             overflow="visible"
             style="overflow:visible">
            <path
               id="path8985"
               d=""
               style="stroke:none"
               inkscape:connector-curvature="0" />
          </symbol>
          <symbol
             id="textext-77f6b85a-5"
             overflow="visible"
             style="overflow:visible">
            <path
               id="path8988"
               d="M 1.734375,-0.734375 C 1.671875,-0.5 1.4375,-0.125 1.078125,-0.125 c -0.015625,0 -0.234375,0 -0.375,-0.09375 0.28125,-0.09375 0.3125,-0.34375 0.3125,-0.390625 0,-0.15625 -0.125,-0.25 -0.28125,-0.25 -0.203125,0 -0.40625,0.15625 -0.40625,0.421875 0,0.34375 0.390625,0.5 0.734375,0.5 0.328125,0 0.609375,-0.1875 0.78125,-0.484375 C 2.015625,-0.0625 2.390625,0.0625 2.671875,0.0625 c 0.8125,0 1.234375,-0.859375 1.234375,-1.0625 0,-0.09375 -0.09375,-0.09375 -0.109375,-0.09375 -0.109375,0 -0.109375,0.046875 -0.140625,0.125 -0.140625,0.484375 -0.5625,0.84375 -0.953125,0.84375 -0.28125,0 -0.421875,-0.1875 -0.421875,-0.453125 0,-0.1875 0.171875,-0.8125 0.359375,-1.59375 C 2.78125,-2.703125 3.09375,-2.875 3.328125,-2.875 c 0.015625,0 0.21875,0 0.375,0.09375 -0.21875,0.0625 -0.3125,0.265625 -0.3125,0.390625 0,0.140625 0.125,0.25 0.28125,0.25 0.15625,0 0.390625,-0.125 0.390625,-0.421875 0,-0.390625 -0.453125,-0.515625 -0.71875,-0.515625 -0.359375,0 -0.640625,0.234375 -0.78125,0.5 -0.125,-0.28125 -0.453125,-0.5 -0.84375,-0.5 C 0.9375,-3.078125 0.5,-2.21875 0.5,-2 c 0,0.078125 0.09375,0.078125 0.109375,0.078125 0.09375,0 0.09375,-0.015625 0.140625,-0.109375 C 0.921875,-2.578125 1.359375,-2.875 1.703125,-2.875 1.9375,-2.875 2.125,-2.75 2.125,-2.421875 2.125,-2.28125 2.03125,-1.9375 1.96875,-1.6875 z"
               style="stroke:none"
               inkscape:connector-curvature="0" />
          </symbol>
        </g>
      </defs>
      <g
         id="textext-77f6b85a-6">
        <g
           id="g8991"
           style="fill:#000000;fill-opacity:1">
          <use
             id="use8993"
             y="132.483"
             x="222.658"
             xlink:href="#textext-77f6b85a-1"
             width="360"
             height="360" />
        </g>
        <g
           id="g8995"
           style="fill:#000000;fill-opacity:1">
          <use
             id="use8997"
             y="134.765"
             x="223.43201"
             xlink:href="#textext-77f6b85a-3"
             width="360"
             height="360" />
        </g>
        <g
           id="g8999"
           style="fill:#000000;fill-opacity:1">
          <use
             id="use9001"
             y="136.259"
             x="226.864"
             xlink:href="#textext-77f6b85a-5"
             width="360"
             height="360" />
        </g>
      </g>
    </g>
    <g
       ns0:text="$\\hat{i}_y$"
       ns0:preamble=""
       transform="translate(-196.38366,815.97542)"
       id="g9445">
      <defs
         id="defs9447">
        <g
           id="g9449">
          <symbol
             overflow="visible"
             id="textext-9fe1e674-0"
             style="overflow:visible">
            <path
               style="stroke:none"
               d=""
               id="path9452"
               inkscape:connector-curvature="0" />
          </symbol>
          <symbol
             overflow="visible"
             id="textext-9fe1e674-1"
             style="overflow:visible">
            <path
               style="stroke:none"
               d="M 2.5,-6.921875 1.15625,-5.5625 1.328125,-5.390625 2.5,-6.40625 3.640625,-5.390625 3.8125,-5.5625 z"
               id="path9455"
               inkscape:connector-curvature="0" />
          </symbol>
          <symbol
             overflow="visible"
             id="textext-9fe1e674-2"
             style="overflow:visible">
            <path
               style="stroke:none"
               d=""
               id="path9458"
               inkscape:connector-curvature="0" />
          </symbol>
          <symbol
             overflow="visible"
             id="textext-9fe1e674-3"
             style="overflow:visible">
            <path
               style="stroke:none"
               d="m 2.828125,-6.234375 c 0,-0.203125 -0.140625,-0.359375 -0.359375,-0.359375 -0.28125,0 -0.546875,0.265625 -0.546875,0.53125 0,0.1875 0.140625,0.359375 0.375,0.359375 0.234375,0 0.53125,-0.234375 0.53125,-0.53125 z m -0.75,3.75 c 0.109375,-0.28125 0.109375,-0.3125 0.21875,-0.578125 0.078125,-0.203125 0.125,-0.34375 0.125,-0.53125 0,-0.4375 -0.3125,-0.8125 -0.8125,-0.8125 -0.9375,0 -1.3125,1.453125 -1.3125,1.53125 0,0.109375 0.09375,0.109375 0.109375,0.109375 0.109375,0 0.109375,-0.03125 0.15625,-0.1875 0.28125,-0.9375 0.671875,-1.234375 1.015625,-1.234375 0.078125,0 0.25,0 0.25,0.3125 0,0.21875 -0.078125,0.421875 -0.109375,0.53125 -0.078125,0.25 -0.53125,1.40625 -0.6875,1.84375 -0.109375,0.25 -0.234375,0.578125 -0.234375,0.796875 0,0.46875 0.34375,0.8125 0.8125,0.8125 0.9375,0 1.3125,-1.4375 1.3125,-1.53125 0,-0.109375 -0.09375,-0.109375 -0.125,-0.109375 -0.09375,0 -0.09375,0.03125 -0.140625,0.1875 -0.1875,0.625 -0.515625,1.234375 -1.015625,1.234375 -0.171875,0 -0.25,-0.09375 -0.25,-0.328125 0,-0.25 0.0625,-0.390625 0.296875,-1 z"
               id="path9461"
               inkscape:connector-curvature="0" />
          </symbol>
          <symbol
             overflow="visible"
             id="textext-9fe1e674-4"
             style="overflow:visible">
            <path
               style="stroke:none"
               d=""
               id="path9464"
               inkscape:connector-curvature="0" />
          </symbol>
          <symbol
             overflow="visible"
             id="textext-9fe1e674-5"
             style="overflow:visible">
            <path
               style="stroke:none"
               d="M 3.875,-2.625 C 3.90625,-2.71875 3.90625,-2.734375 3.90625,-2.78125 3.90625,-2.921875 3.796875,-3 3.671875,-3 3.59375,-3 3.46875,-2.96875 3.390625,-2.84375 3.359375,-2.796875 3.3125,-2.578125 3.28125,-2.4375 L 3.125,-1.859375 c -0.03125,0.171875 -0.25,1.046875 -0.28125,1.125 0,0 -0.3125,0.609375 -0.84375,0.609375 -0.484375,0 -0.484375,-0.453125 -0.484375,-0.578125 0,-0.375 0.15625,-0.8125 0.375,-1.359375 C 1.96875,-2.28125 2,-2.359375 2,-2.484375 2,-2.8125 1.71875,-3.078125 1.34375,-3.078125 0.640625,-3.078125 0.328125,-2.125 0.328125,-2 c 0,0.078125 0.09375,0.078125 0.125,0.078125 0.09375,0 0.09375,-0.03125 0.125,-0.109375 C 0.75,-2.609375 1.046875,-2.875 1.328125,-2.875 1.4375,-2.875 1.5,-2.796875 1.5,-2.640625 c 0,0.171875 -0.0625,0.3125 -0.09375,0.40625 C 1.0625,-1.375 1,-1.125 1,-0.8125 1,-0.703125 1,-0.375 1.265625,-0.140625 1.484375,0.03125 1.78125,0.0625 1.96875,0.0625 2.25,0.0625 2.5,-0.03125 2.71875,-0.25 2.640625,0.140625 2.5625,0.4375 2.265625,0.78125 2.078125,1 1.796875,1.21875 1.421875,1.21875 c -0.046875,0 -0.375,0 -0.515625,-0.21875 0.375,-0.046875 0.375,-0.375 0.375,-0.390625 0,-0.21875 -0.203125,-0.265625 -0.265625,-0.265625 -0.171875,0 -0.40625,0.140625 -0.40625,0.46875 0,0.34375 0.328125,0.609375 0.828125,0.609375 C 2.140625,1.421875 3,0.875 3.21875,0 z"
               id="path9467"
               inkscape:connector-curvature="0" />
          </symbol>
        </g>
      </defs>
      <g
         id="textext-9fe1e674-6">
        <g
           style="fill:#000000;fill-opacity:1"
           id="g9470">
          <use
             xlink:href="#textext-9fe1e674-1"
             x="222.658"
             y="132.483"
             id="use9472"
             width="360"
             height="360" />
        </g>
        <g
           style="fill:#000000;fill-opacity:1"
           id="g9474">
          <use
             xlink:href="#textext-9fe1e674-3"
             x="223.43201"
             y="134.765"
             id="use9476"
             width="360"
             height="360" />
        </g>
        <g
           style="fill:#000000;fill-opacity:1"
           id="g9478">
          <use
             xlink:href="#textext-9fe1e674-5"
             x="226.864"
             y="136.259"
             id="use9480"
             width="360"
             height="360" />
        </g>
      </g>
    </g>
    <g
       id="g10006"
       ns0:preamble=""
       ns0:text="$l_0$"
       transform="translate(-29.77207,838.3967)">
      <defs
         id="defs10008">
        <g
           id="g10010">
          <symbol
             id="textext-03c909df-0"
             overflow="visible"
             style="overflow:visible">
            <path
               id="path10013"
               d=""
               style="stroke:none"
               inkscape:connector-curvature="0" />
          </symbol>
          <symbol
             id="textext-03c909df-1"
             overflow="visible"
             style="overflow:visible">
            <path
               id="path10016"
               d="m 2.578125,-6.8125 c 0,0 0,-0.109375 -0.140625,-0.109375 -0.21875,0 -0.953125,0.078125 -1.21875,0.109375 -0.078125,0 -0.1875,0.015625 -0.1875,0.203125 0,0.109375 0.109375,0.109375 0.25,0.109375 0.484375,0 0.5,0.09375 0.5,0.171875 L 1.75,-6.125 0.484375,-1.140625 C 0.453125,-1.03125 0.4375,-0.96875 0.4375,-0.8125 c 0,0.578125 0.4375,0.921875 0.90625,0.921875 0.328125,0 0.578125,-0.203125 0.75,-0.5625 0.171875,-0.375 0.296875,-0.953125 0.296875,-0.96875 0,-0.109375 -0.09375,-0.109375 -0.125,-0.109375 -0.09375,0 -0.109375,0.046875 -0.125,0.1875 C 1.96875,-0.703125 1.78125,-0.109375 1.375,-0.109375 c -0.296875,0 -0.296875,-0.3125 -0.296875,-0.453125 0,-0.25 0.015625,-0.296875 0.0625,-0.484375 z"
               style="stroke:none"
               inkscape:connector-curvature="0" />
          </symbol>
          <symbol
             id="textext-03c909df-2"
             overflow="visible"
             style="overflow:visible">
            <path
               id="path10019"
               d=""
               style="stroke:none"
               inkscape:connector-curvature="0" />
          </symbol>
          <symbol
             id="textext-03c909df-3"
             overflow="visible"
             style="overflow:visible">
            <path
               id="path10022"
               d="M 3.59375,-2.21875 C 3.59375,-2.984375 3.5,-3.546875 3.1875,-4.03125 2.96875,-4.34375 2.53125,-4.625 1.984375,-4.625 c -1.625,0 -1.625,1.90625 -1.625,2.40625 0,0.5 0,2.359375 1.625,2.359375 1.609375,0 1.609375,-1.859375 1.609375,-2.359375 z M 1.984375,-0.0625 c -0.328125,0 -0.75,-0.1875 -0.890625,-0.75 C 1,-1.21875 1,-1.796875 1,-2.3125 1,-2.828125 1,-3.359375 1.09375,-3.734375 1.25,-4.28125 1.6875,-4.4375 1.984375,-4.4375 c 0.375,0 0.734375,0.234375 0.859375,0.640625 0.109375,0.375 0.125,0.875 0.125,1.484375 0,0.515625 0,1.03125 -0.09375,1.46875 -0.140625,0.640625 -0.609375,0.78125 -0.890625,0.78125 z"
               style="stroke:none"
               inkscape:connector-curvature="0" />
          </symbol>
        </g>
      </defs>
      <g
         id="textext-03c909df-4">
        <g
           id="g10025"
           style="fill:#000000;fill-opacity:1">
          <use
             id="use10027"
             y="134.765"
             x="223.43201"
             xlink:href="#textext-03c909df-1"
             width="360"
             height="360" />
        </g>
        <g
           id="g10029"
           style="fill:#000000;fill-opacity:1">
          <use
             id="use10031"
             y="136.259"
             x="226.405"
             xlink:href="#textext-03c909df-3"
             width="360"
             height="360" />
        </g>
      </g>
    </g>
    <g
       transform="translate(30.121736,785.51174)"
       ns0:text="$l_1$"
       ns0:preamble=""
       id="g10535">
      <defs
         id="defs10537">
        <g
           id="g10539">
          <symbol
             overflow="visible"
             id="textext-76adb4f4-0"
             style="overflow:visible">
            <path
               style="stroke:none"
               d=""
               id="path10542"
               inkscape:connector-curvature="0" />
          </symbol>
          <symbol
             overflow="visible"
             id="textext-76adb4f4-1"
             style="overflow:visible">
            <path
               style="stroke:none"
               d="m 2.578125,-6.8125 c 0,0 0,-0.109375 -0.140625,-0.109375 -0.21875,0 -0.953125,0.078125 -1.21875,0.109375 -0.078125,0 -0.1875,0.015625 -0.1875,0.203125 0,0.109375 0.109375,0.109375 0.25,0.109375 0.484375,0 0.5,0.09375 0.5,0.171875 L 1.75,-6.125 0.484375,-1.140625 C 0.453125,-1.03125 0.4375,-0.96875 0.4375,-0.8125 c 0,0.578125 0.4375,0.921875 0.90625,0.921875 0.328125,0 0.578125,-0.203125 0.75,-0.5625 0.171875,-0.375 0.296875,-0.953125 0.296875,-0.96875 0,-0.109375 -0.09375,-0.109375 -0.125,-0.109375 -0.09375,0 -0.109375,0.046875 -0.125,0.1875 C 1.96875,-0.703125 1.78125,-0.109375 1.375,-0.109375 c -0.296875,0 -0.296875,-0.3125 -0.296875,-0.453125 0,-0.25 0.015625,-0.296875 0.0625,-0.484375 z"
               id="path10545"
               inkscape:connector-curvature="0" />
          </symbol>
          <symbol
             overflow="visible"
             id="textext-76adb4f4-2"
             style="overflow:visible">
            <path
               style="stroke:none"
               d=""
               id="path10548"
               inkscape:connector-curvature="0" />
          </symbol>
          <symbol
             overflow="visible"
             id="textext-76adb4f4-3"
             style="overflow:visible">
            <path
               style="stroke:none"
               d="m 2.328125,-4.4375 c 0,-0.1875 0,-0.1875 -0.203125,-0.1875 -0.453125,0.4375 -1.078125,0.4375 -1.359375,0.4375 l 0,0.25 c 0.15625,0 0.625,0 1,-0.1875 l 0,3.546875 c 0,0.234375 0,0.328125 -0.6875,0.328125 l -0.265625,0 0,0.25 c 0.125,0 0.984375,-0.03125 1.234375,-0.03125 0.21875,0 1.09375,0.03125 1.25,0.03125 l 0,-0.25 -0.265625,0 c -0.703125,0 -0.703125,-0.09375 -0.703125,-0.328125 z"
               id="path10551"
               inkscape:connector-curvature="0" />
          </symbol>
        </g>
      </defs>
      <g
         id="textext-76adb4f4-4">
        <g
           style="fill:#000000;fill-opacity:1"
           id="g10554">
          <use
             xlink:href="#textext-76adb4f4-1"
             x="223.43201"
             y="134.765"
             id="use10556"
             width="360"
             height="360" />
        </g>
        <g
           style="fill:#000000;fill-opacity:1"
           id="g10558">
          <use
             xlink:href="#textext-76adb4f4-3"
             x="226.405"
             y="136.259"
             id="use10560"
             width="360"
             height="360" />
        </g>
      </g>
    </g>
    <g
       id="g11096"
       ns0:preamble=""
       ns0:text="$l_n$"
       transform="translate(65.165983,714.14892)">
      <defs
         id="defs11098">
        <g
           id="g11100">
          <symbol
             id="textext-a3e54763-0"
             overflow="visible"
             style="overflow:visible">
            <path
               id="path11103"
               d=""
               style="stroke:none"
               inkscape:connector-curvature="0" />
          </symbol>
          <symbol
             id="textext-a3e54763-1"
             overflow="visible"
             style="overflow:visible">
            <path
               id="path11106"
               d="m 2.578125,-6.8125 c 0,0 0,-0.109375 -0.140625,-0.109375 -0.21875,0 -0.953125,0.078125 -1.21875,0.109375 -0.078125,0 -0.1875,0.015625 -0.1875,0.203125 0,0.109375 0.109375,0.109375 0.25,0.109375 0.484375,0 0.5,0.09375 0.5,0.171875 L 1.75,-6.125 0.484375,-1.140625 C 0.453125,-1.03125 0.4375,-0.96875 0.4375,-0.8125 c 0,0.578125 0.4375,0.921875 0.90625,0.921875 0.328125,0 0.578125,-0.203125 0.75,-0.5625 0.171875,-0.375 0.296875,-0.953125 0.296875,-0.96875 0,-0.109375 -0.09375,-0.109375 -0.125,-0.109375 -0.09375,0 -0.109375,0.046875 -0.125,0.1875 C 1.96875,-0.703125 1.78125,-0.109375 1.375,-0.109375 c -0.296875,0 -0.296875,-0.3125 -0.296875,-0.453125 0,-0.25 0.015625,-0.296875 0.0625,-0.484375 z"
               style="stroke:none"
               inkscape:connector-curvature="0" />
          </symbol>
          <symbol
             id="textext-a3e54763-2"
             overflow="visible"
             style="overflow:visible">
            <path
               id="path11109"
               d=""
               style="stroke:none"
               inkscape:connector-curvature="0" />
          </symbol>
          <symbol
             id="textext-a3e54763-3"
             overflow="visible"
             style="overflow:visible">
            <path
               id="path11112"
               d="m 0.84375,-0.4375 c -0.015625,0.09375 -0.0625,0.265625 -0.0625,0.28125 0,0.15625 0.125,0.21875 0.234375,0.21875 0.125,0 0.234375,-0.078125 0.28125,-0.140625 0.03125,-0.0625 0.078125,-0.296875 0.125,-0.4375 0.03125,-0.125 0.109375,-0.453125 0.140625,-0.625 0.046875,-0.15625 0.09375,-0.3125 0.125,-0.46875 0.078125,-0.28125 0.09375,-0.34375 0.296875,-0.625 C 2.171875,-2.515625 2.5,-2.875 3.03125,-2.875 c 0.390625,0 0.40625,0.359375 0.40625,0.484375 0,0.421875 -0.296875,1.1875 -0.40625,1.484375 -0.078125,0.203125 -0.109375,0.265625 -0.109375,0.375 0,0.375 0.296875,0.59375 0.65625,0.59375 0.703125,0 1,-0.953125 1,-1.0625 0,-0.09375 -0.078125,-0.09375 -0.109375,-0.09375 -0.09375,0 -0.09375,0.046875 -0.125,0.125 C 4.1875,-0.40625 3.875,-0.125 3.609375,-0.125 c -0.15625,0 -0.1875,-0.09375 -0.1875,-0.25 0,-0.15625 0.046875,-0.25 0.171875,-0.5625 0.078125,-0.21875 0.359375,-0.953125 0.359375,-1.34375 0,-0.671875 -0.53125,-0.796875 -0.90625,-0.796875 -0.578125,0 -0.96875,0.359375 -1.171875,0.640625 -0.046875,-0.484375 -0.453125,-0.640625 -0.75,-0.640625 -0.296875,0 -0.453125,0.21875 -0.546875,0.375 -0.15625,0.265625 -0.25,0.65625 -0.25,0.703125 0,0.078125 0.09375,0.078125 0.125,0.078125 0.09375,0 0.09375,-0.015625 0.140625,-0.203125 0.109375,-0.40625 0.25,-0.75 0.515625,-0.75 0.1875,0 0.234375,0.15625 0.234375,0.34375 0,0.125 -0.0625,0.390625 -0.125,0.578125 -0.046875,0.1875 -0.109375,0.46875 -0.140625,0.625 z"
               style="stroke:none"
               inkscape:connector-curvature="0" />
          </symbol>
        </g>
      </defs>
      <g
         id="textext-a3e54763-4">
        <g
           id="g11115"
           style="fill:#000000;fill-opacity:1">
          <use
             id="use11117"
             y="134.765"
             x="223.43201"
             xlink:href="#textext-a3e54763-1"
             width="360"
             height="360" />
        </g>
        <g
           id="g11119"
           style="fill:#000000;fill-opacity:1">
          <use
             id="use11121"
             y="136.259"
             x="226.405"
             xlink:href="#textext-a3e54763-3"
             width="360"
             height="360" />
        </g>
      </g>
    </g>
  </g>
</svg>
